# xmcd CD database file
#
# Track frame offsets:
#	150
#	25717
#	43407
#	64690
#	82737
#	105097
#	127747
#	148645
#	170662
#	197630
#	220302
#	238810
#
# Disc length: 3335 seconds
#
# Revision: 0
# Processed by: cddbd v1.5.2PL0 Copyright (c) Steve Scherf et al.
# Submitted via: CDex 1.70beta2
#
DISCID=9d0d050c
DTITLE=Jeff and the Jet City Fliers - What Other World
DYEAR=1999
DGENRE=Blues
TTITLE0=What Other World?
TTITLE1=Up the Line
TTITLE2=Born in Chicago
TTITLE3=Sneak Attack
TTITLE4=Room to Move
TTITLE5=Move On
TTITLE6=I Think It Was The Wine
TTITLE7=Mother in Law Blues
TTITLE8=Mojo Boogie
TTITLE9=The Blues Had a Baby
TTITLE10=Roll Over Beethoven
TTITLE11=I'm Harp Broken
EXTD=YEAR: 1999
EXTT0=
EXTT1=
EXTT2=
EXTT3=
EXTT4=
EXTT5=
EXTT6=
EXTT7=
EXTT8=
EXTT9=
EXTT10=
EXTT11=
PLAYORDER=
